<?xml version="1.0" encoding="UTF-8" standalone="no"?>
<svg width="69px" height="69px" viewBox="0 0 69 69" version="1.1" xmlns="http://www.w3.org/2000/svg" xmlns:xlink="http://www.w3.org/1999/xlink">
    <!-- Generator: Sketch 41.2 (35397) - http://www.bohemiancoding.com/sketch -->
    <title>tech-48px-outline-2_headphone</title>
    <desc>Created with Sketch.</desc>
    <defs></defs>
    <g id="Page-1" stroke="none" stroke-width="1" fill="none" fill-rule="evenodd">
        <g id="Review-2016-v2" transform="translate(-696.000000, -2581.000000)" stroke-width="4" stroke="#FFFFFF">
            <g id="Overall-Playlist" transform="translate(222.000000, 2411.000000)">
                <g id="Group-7" transform="translate(217.000000, 172.000000)">
                    <g id="tech-48px-outline-2_headphone" transform="translate(259.000000, 0.000000)">
                        <g id="Group">
                            <path d="M65,41.3636364 L65,32.5 C65,14.5511364 50.4488636,0 32.5,0 L32.5,0 C14.5511364,0 0,14.5511364 0,32.5 L0,41.3636364" id="Shape"></path>
                            <path d="M17.7272727,41.3636364 L0,41.3636364 L0,59.0909091 C0,62.3542045 2.64579545,65 5.90909091,65 L17.7272727,65 L17.7272727,41.3636364 Z" id="Shape"></path>
                            <path d="M65,41.3636364 L47.2727273,41.3636364 L47.2727273,65 L59.0909091,65 C62.3542045,65 65,62.3542045 65,59.0909091 L65,41.3636364 Z" id="Shape"></path>
                        </g>
                    </g>
                </g>
            </g>
        </g>
    </g>
</svg>