<?xml version="1.0" encoding="UTF-8" standalone="no"?>
<svg width="69px" height="66px" viewBox="0 0 69 66" version="1.1" xmlns="http://www.w3.org/2000/svg" xmlns:xlink="http://www.w3.org/1999/xlink">
    <!-- Generator: Sketch 41.2 (35397) - http://www.bohemiancoding.com/sketch -->
    <title>food-48px-outline_coffee</title>
    <desc>Created with Sketch.</desc>
    <defs></defs>
    <g id="Page-1" stroke="none" stroke-width="1" fill="none" fill-rule="evenodd">
        <g id="Mobile-Review-2016" transform="translate(-126.000000, -3809.000000)" stroke-width="4" stroke="#000000">
            <g id="Overall" transform="translate(0.000000, 1922.000000)">
                <g id="Overall-Coffee" transform="translate(0.000000, 1828.000000)">
                    <g id="Group-7" transform="translate(40.000000, 59.000000)">
                        <g id="food-48px-outline_coffee" transform="translate(88.000000, 0.000000)">
                            <g id="Group">
                                <path d="M26,0 L26,5.90909091" id="Shape"></path>
                                <path d="M11,2.95454545 L11,8.86363636" id="Shape"></path>
                                <path d="M41,2.95454545 L41,8.86363636" id="Shape"></path>
                                <path d="M53.1818182,20.6818182 L65,20.6818182 L65,32.5 C65,35.75 62.3409091,38.4090909 59.0909091,38.4090909 L51.7045455,38.4090909" id="Shape"></path>
                                <path d="M26.5909091,56.1363636 L26.5909091,56.1363636 C11.9659091,56.1363636 0,44.1704545 0,29.5454545 L0,20.6818182 L53.1818182,20.6818182 L53.1818182,29.5454545 C53.1818182,44.1704545 41.2159091,56.1363636 26.5909091,56.1363636 Z" id="Shape"></path>
                                <path d="M53.1818182,56.1363636 L0,56.1363636 L0,56.1363636 C0,60.2727273 3.25,63.5227273 7.38636364,63.5227273 L45.7954545,63.5227273 C49.9318182,63.5227273 53.1818182,60.2727273 53.1818182,56.1363636 L53.1818182,56.1363636 Z" id="Shape"></path>
                            </g>
                        </g>
                    </g>
                </g>
            </g>
        </g>
    </g>
</svg>