<svg xmlns="http://www.w3.org/2000/svg" width="142" height="30" viewBox="0 0 142 30">
  <g fill="none" fill-rule="evenodd">
    <path fill="#FFFFFF" d="M74.7622642 25.0188679C74.5654392 25.0245858 74.3759675 24.9438926 74.2437026 24.7980202 74.1114377 24.6521478 74.0496249 24.4557042 74.0745283 24.2603774L75.8490566 7.70660377C75.8957481 7.23984455 75.7415621 6.77527482 75.4250523 6.42905843 75.1085424 6.08284204 74.6596308 5.88770946 74.190566 5.89245283 73.7215013 5.8971962 65.6575472 5.28396226 62.4 6.90566038 59.1735849 8.51037736 57.7188679 12.8066038 57.1698113 17.8471698 56.5160377 23.9773585 57.0028302 29.804717 62.8754717 29.804717 65.3971698 29.804717 67.4490566 29.6462264 68.8330189 27.7301887 68.8330189 27.7301887 68.8330189 27.8632075 68.804717 28.0754717 68.7622186 28.519117 68.9098384 28.959976 69.2109194 29.2885753 69.5120005 29.6171745 69.9383009 29.8026906 70.3839623 29.7990566L75.9056604 29.7990566 76.3556604 25.5707547C76.3743677 25.4280149 76.3307615 25.2841261 76.2359629 25.1757849 76.1411643 25.0674436 76.0043372 25.005123 75.8603774 25.004717L74.759434 25.004717 74.7622642 25.0188679zM70.5990566 11.2160377C70.4801887 14.0462264 69.4103774 22.5367925 69.4103774 22.5367925 69.3640974 22.9362553 69.1775551 23.306331 68.8839623 23.5811321 67.6132075 24.7726415 66.0537736 25.0273585 64.6839623 24.9481132 62.1169811 24.7981132 61.3641509 23.9858491 62.0349057 17.8528302 62.5160377 13.440566 63.0792453 12.4216981 64.4575472 11.3858491 65.7707547 10.3981132 67.4009434 10.4433962 70.0075472 10.5367925L70.0075472 10.5367925C70.3396796 10.5533426 70.6007942 10.8268913 70.6018868 11.159434 70.5962264 11.1679245 70.5990566 11.2018868 70.5990566 11.2160377L70.5990566 11.2160377zM39.3849057 5.90377358L37.5367925 5.90377358C36.4656384 5.94031149 35.4131348 6.19453012 34.4433962 6.6509434 34.1858491 6.76698113 33.9283019 6.89150943 33.6764151 7.03018868 31.6132075 8.16226415 30.7811321 10.4264151 30.5632075 11.0518868 29.9971698 12.6198113 30.0877358 16.7320755 33.1415094 18.6056604 33.2179245 18.6509434 33.2943396 18.6990566 33.3735849 18.7415094 34.9358491 19.590566 36.6084906 19.9754717 37.7632075 20.6377358 38.6349057 21.1386792 39.2122642 21.8037736 39.2122642 22.9641509 39.2122642 23.6943396 38.7254717 24.2122642 37.9726415 24.5773585 36.5575472 25.2566038 33.4443396 25.0245283 32.3971698 25.0245283L29.9066038 25.0245283 29.3660377 29.8075472 36.104717 29.8075472C37.185724 29.7826241 38.2542868 29.571018 39.2632075 29.1820755 42.3537736 28.1009434 43.8962264 25.7207547 43.8962264 21.8801887 43.8962264 18.8773585 41.3801887 16.8226415 38.3179245 15.704717L37.95 15.5745283C36.2518868 15.0084906 34.3301887 14.4849057 35.2018868 12.1103774 35.8188679 10.4320755 38.5188679 10.6556604 40.0132075 10.695283L40.0613208 10.695283 40.7009434 10.695283 42.3254717 10.695283C42.9170571 10.6879723 43.4943117 10.5122434 43.9896226 10.1886792 44.7942869 9.68620229 45.3304836 8.84865476 45.45 7.90754717L45.5660377 6.74433962C45.5858491 6.46132075 45.6141509 6.17830189 45.6537736 5.89528302L39.3849057 5.89528302 39.3849057 5.90377358z"/>
    <path fill="#FFFFFF" d="M52.5679245 5.90377358L52.9811321 2.01509434C53.0002187 1.78691783 52.9224511 1.56123568 52.7668525 1.39325382 52.6112539 1.22527197 52.3921754 1.13048353 52.1632075 1.13207547L48.795283 1.13207547C48.4736871 1.13688095 48.205201 1.37876027 48.1669811 1.69811321L47.7169811 5.81037736 47.1509434 10.9867925C-1.67928637.99840144e-15 47.1509434 11.0037736 47.1509434 11.0122642L45.9056604 22.3613208 45.3396226 27.4358491C45.2607069 28.0517071 45.4553948 28.671241 45.8724022 29.1312558 46.2894097 29.5912705 46.8869228 29.8456397 47.5075472 29.8273585L52.3584906 29.8273585 52.8084906 25.604717C52.8292374 25.46111 52.785968 25.3156281 52.6901123 25.2067012 52.5942566 25.0977742 52.4554567 25.0363592 52.3103774 25.0386792L51.2264151 25.0386792C51.0301335 25.044817 50.8411728 24.963899 50.7101654 24.8176074 50.579158 24.6713159 50.5194974 24.4746067 50.5471698 24.2801887L50.6603774 23.2811321 52.0018868 11.3179245C52.0475663 10.9639636 52.3497107 10.6994356 52.7066038 10.7009434L55.5028302 10.7009434C57.0952078 10.676192 58.4304167 9.49134446 58.6443396 7.91320755L58.8566038 5.93207547 52.5679245 5.93207547 52.5679245 5.90377358zM87.509434 5.90377358C87.2561125 5.90433887 87.013552 6.00625506 86.8358491 6.18679245L85.8113208 7.21698113C85.6409096 7.39120383 85.4096344 7.49264032 85.1660377 7.5L85.2424528 6.79245283C85.2649319 6.56241544 85.1886911 6.33365049 85.0327044 6.16309064 84.8767177 5.9925308 84.6556536 5.89621495 84.4245283 5.89811321L81.0566038 5.89811321C80.7201209 5.90075201 80.4301138 6.13557556 80.3575472 6.46415094L77.8103774 29.8132075 82.6415094 29.8132075 84.6990566 11.3207547C84.7076699 11.2482401 84.7277305 11.1775505 84.7584906 11.1113208 84.8813767 10.831889 85.1673391 10.6605386 85.4716981 10.6839623L88.2141509 10.6839623 88.3132075 10.6839623C89.8605239 10.6098916 91.1313744 9.4356973 91.3273585 7.8990566L91.5396226 5.91792453 87.509434 5.91792453 87.509434 5.90377358zM120.283019 25.0188679C120.086194 25.0245858 119.896722 24.9438926 119.764457 24.7980202 119.632192 24.6521478 119.57038 24.4557042 119.595283 24.2603774L121.358491 7.70660377C121.405182 7.23984455 121.250996 6.77527482 120.934486 6.42905843 120.617976 6.08284204 120.169065 5.88770946 119.7 5.89245283 119.230935 5.8971962 111.166981 5.28396226 107.909434 6.90566038 104.69717 8.50754717 103.242453 12.8037736 102.704717 17.8443396 102.050943 23.9745283 102.537736 29.8018868 108.410377 29.8018868 110.932075 29.8018868 112.983962 29.6433962 114.367925 27.7273585 114.367925 27.7273585 114.367925 27.8603774 114.339623 28.0726415 114.297124 28.5162868 114.444744 28.9571458 114.745825 29.2857451 115.046906 29.6143443 115.473207 29.7998605 115.918868 29.7962264L121.415094 29.7962264 121.865094 25.5679245C121.883802 25.4251847 121.840195 25.2812959 121.745397 25.1729547 121.650598 25.0646134 121.513771 25.0022928 121.369811 25.0018868L120.283019 25.0018868 120.283019 25.0188679zM116.111321 11.2160377C115.992453 14.0462264 114.922642 22.5367925 114.922642 22.5367925 114.876362 22.9362553 114.689819 23.306331 114.396226 23.5811321 113.125472 24.7726415 111.566038 25.0273585 110.196226 24.9481132 107.629245 24.7981132 106.876415 23.9858491 107.54717 17.8528302 108.028302 13.440566 108.591509 12.4216981 109.969811 11.3858491 111.283019 10.3981132 112.913208 10.4433962 115.519811 10.5367925L115.519811 10.5367925C115.851944 10.5533426 116.113058 10.8268913 116.114151 11.159434 116.108491 11.1679245 116.111321 11.2018868 116.111321 11.2160377L116.111321 11.2160377z"/>
    <path fill="#FFFFFF" d="M98.0801887,5.90377358 L98.490566,2.01509434 C98.5096073,1.78741115 98.4322134,1.56218904 98.2772414,1.39430261 C98.1222693,1.22641618 97.9039483,1.13128065 97.6754717,1.13207547 L94.3075472,1.13207547 C93.9859512,1.13688095 93.7174652,1.37876027 93.6792453,1.69811321 L93.2292453,5.81037736 L92.6632075,10.9867925 C7.10542736e-15,4.4408921e-16 92.6632075,11.0037736 92.6632075,11.0122642 L91.4150943,22.3386792 L90.8490566,27.4132075 C90.7701409,28.0290656 90.9648287,28.6485995 91.3818362,29.1086143 C91.7988436,29.568629 92.3963568,29.8229982 93.0169811,29.804717 L97.8650943,29.804717 L98.3150943,25.5820755 C98.3358412,25.4384685 98.2925718,25.2929866 98.1967161,25.1840597 C98.1008604,25.0751327 97.9620605,25.0137177 97.8169811,25.0160377 L96.7075472,25.0160377 C96.5112656,25.0221755 96.3223048,24.9412575 96.1912975,24.7949659 C96.0602901,24.6486744 96.0006295,24.4519652 96.0283019,24.2575472 L96.1415094,23.2584906 L97.4830189,11.295283 C97.5321456,10.9359278 97.8450496,10.6719151 98.2075472,10.6839623 L101.003774,10.6839623 C102.598311,10.6619861 103.936695,9.47645785 104.150943,7.89622642 L104.363208,5.91509434 L98.0801887,5.91509434 L98.0801887,5.90377358 Z"/>
    <path fill="#FFFFFF" d="M137.69434 21.0735849C140.983019 18.7726415 141.356604 14.054717 141.390566 13.7349057 141.466981 13.004717 142.072642 9.43867925 139.576415 7.2509434 138.860377 6.62264151 137.790566 6.28018868 136.542453 6.0990566 135.00283 5.8754717 126.727358 5.89528302 126.727358 5.89528302 125.961634 5.89292068 125.306632 6.44494223 125.179245 7.2L125.179245 7.2C3.13018868 0 125.179245 7.22264151 125.179245 7.23396226L125.179245 7.23396226C125.167704 7.29948216 125.160143 7.36564109 125.156604 7.43207547 124.95 9.26603774 123.469811 22.6415094 123.396226 23.3603774 123.353036 23.7304825 123.332243 24.1028589 123.333962 24.4754717 123.333962 26.0943396 123.837736 27.3877358 124.808491 28.3273585 125.066712 28.572243 125.357124 28.7807681 125.671698 28.9471698 126.284173 29.2562229 126.929839 29.4945497 127.596226 29.6575472 128.088679 29.790566 129.645283 29.7933962 131.017925 29.790566L138.093396 29.790566 138.534906 25.545283C138.550198 25.4068845 138.505841 25.268521 138.412933 25.1648095 138.320025 25.061098 138.187354 25.0018494 138.048113 25.0018868L130.95 25.0018868C129.585849 25.0018868 128.156604 24.9113208 128.184906 24.4132075 128.184906 24.3339623 128.414151 22.2707547 128.414151 22.2707547 130.245283 22.5367925 135.033962 22.9245283 137.69434 21.0735849L137.69434 21.0735849zM128.920755 17.4141509L129.543396 11.4707547C129.549205 11.2783122 129.582563 11.0876953 129.642453 10.904717L129.642453 10.904717C129.709367 10.7022222 129.884416 10.5545249 130.095283 10.5226415L133.381132 10.5226415C135.30566 10.5226415 137.10283 10.6528302 136.545283 14.2839623 135.89717 18.4924528 129 17.6179245 128.917925 17.4141509L128.920755 17.4141509zM134.278302 3.74150943C134.779245 4.09245283 135.89434 4.85660377 137.148113 4.85660377 137.801887 4.85660377 137.946226 4.12075472 137.688679 3.65377358 137.688679 3.65377358 136.100943 1.83962264 135.410377.85754717 135.018781.349102346 134.424615.0370928414 133.783736.00336235772 133.142856-.030368126 132.519221.21754654 132.076415.682075472 131.213208 1.6754717 129.127358 3.6 129.127358 3.6 128.722642 4.16603774 128.929245 4.85660377 129.614151 4.85660377 130.995283 4.85660377 132.260377 4.03867925 132.826415 3.68490566 133.27517 3.40042569 133.853057 3.42295542 134.278302 3.74150943L134.278302 3.74150943z"/>
    <path fill="#FF223E" d="M20.8358491,9.02830189 L20.8358491,6.07924528 C20.8373504,6.06324268 20.8373504,6.04713468 20.8358491,6.03113208 L20.8358491,6.03113208 L20.8358491,6.03113208 L20.8358491,6.01132075 L20.8188679,5.99433962 L20.7679245,5.94339623 L20.745283,5.94339623 L20.745283,5.94339623 L20.745283,5.94339623 L20.7198113,5.94339623 L5.0490566,5.94339623 C5.00460955,5.94297388 4.96182837,5.96029008 4.93018868,5.99150943 L0.0481132075,10.8735849 C0.0349949919,10.8876731 0.0244570806,10.903959 0.0169811321,10.9216981 L0.0169811321,10.9358491 C0.0148891565,10.9508709 0.0148891565,10.9661102 0.0169811321,10.9811321 C0.0190731077,10.9961539 0.0169811321,10.9811321 0.0169811321,10.9811321 L0.0169811321,16.8707547 C0.0140021923,16.9100687 0.0250304086,16.9491688 0.0481132075,16.9811321 L4.81132075,21.7726415 L0.0481132075,26.5584906 C0.0352650791,26.5717283 0.0247402752,26.5870371 0.0169811321,26.6037736 L0.0169811321,26.6179245 C0.0148891565,26.6329464 0.0148891565,26.6481857 0.0169811321,26.6632075 C0.0190731077,26.6782294 0.0169811321,26.6632075 0.0169811321,26.6632075 L0.0169811321,29.6037736 C0.0169811321,29.6959947 0.0917411314,29.7707547 0.183962264,29.7707547 L15.8066038,29.7707547 C15.850071,29.7704318 15.8916991,29.7531714 15.9226415,29.7226415 L15.9226415,29.7226415 L20.7877358,24.8320755 C20.8182657,24.801133 20.8355261,24.759505 20.8358491,24.7160377 L20.8358491,18.8320755 C0.333962264,2.66453526e-15 20.8358491,18.8320755 20.8358491,18.8320755 C20.837941,18.8170536 20.837941,18.8018143 20.8358491,18.7867925 L20.8358491,18.7726415 C20.8283731,18.7549024 20.8178352,18.7386165 20.804717,18.7245283 L16.0216981,13.9301887 L20.7877358,9.14716981 C20.8189552,9.11553012 20.8362714,9.07274894 20.8358491,9.02830189 L20.8358491,9.02830189 Z M20.504717,18.9990566 L20.504717,21.6084906 L5.22169811,21.6084906 L5.22169811,18.9990566 L20.504717,18.9990566 L20.504717,18.9990566 Z M0.331132075,11.1566038 L15.6141509,11.1566038 L15.6141509,13.7660377 L0.331132075,13.7660377 L0.331132075,11.1566038 L0.331132075,11.1566038 Z M5.11698113,6.25471698 L20.2726415,6.25471698 L15.7188679,10.8226415 L0.566037736,10.8226415 L5.11698113,6.25471698 Z M0.331132075,14.3320755 L4.88207547,18.9 L4.88207547,21.3707547 L0.331132075,16.8028302 L0.331132075,14.3320755 L0.331132075,14.3320755 Z M5.11698113,21.9396226 L20.2726415,21.9396226 L15.7188679,26.5103774 L0.566037736,26.5103774 L5.11698113,21.9396226 Z M0.331132075,26.8415094 L15.6141509,26.8415094 L15.6141509,29.4509434 L0.331132075,29.4509434 L0.331132075,26.8415094 L0.331132075,26.8415094 Z M15.9537736,29.2160377 L15.9537736,26.745283 L20.504717,22.1745283 L20.504717,24.645283 L15.9537736,29.2160377 Z M5.11698113,18.6792453 L0.566037736,14.0971698 L15.7188679,14.0971698 L20.2726415,18.6792453 L5.11698113,18.6792453 L5.11698113,18.6792453 Z M15.9537736,13.5283019 L15.9537736,11.0575472 L20.504717,6.48962264 L20.504717,8.96037736 L15.9537736,13.5283019 Z"/>
  </g>
</svg>
