<?xml version="1.0" encoding="UTF-8" standalone="no"?>
<svg width="110px" height="24px" viewBox="0 0 110 24" version="1.1" xmlns="http://www.w3.org/2000/svg" xmlns:xlink="http://www.w3.org/1999/xlink">
    <!-- Generator: Sketch 41.2 (35397) - http://www.bohemiancoding.com/sketch -->
    <title>Logo</title>
    <desc>Created with Sketch.</desc>
    <defs></defs>
    <g id="Page-1" stroke="none" stroke-width="1" fill="none" fill-rule="evenodd">
        <g id="Mobile-Review-2016" transform="translate(-30.000000, -30.000000)" fill="#FFFFFF">
            <g id="Hero" transform="translate(15.000000, 30.000000)">
                <g id="Logo" transform="translate(15.000000, 0.000000)">
                    <path d="M57.91443,19.3808132 C57.7619599,19.3852425 57.6151861,19.3227337 57.5127274,19.209734 C57.4102687,19.0967342 57.3623855,18.9445596 57.3816769,18.7932501 L58.7563115,5.96990433 C58.7924809,5.60833029 58.6730411,5.24845232 58.4278574,4.98025653 C58.1826737,4.71206073 57.8349253,4.56090169 57.4715652,4.56457614 C57.1082052,4.56825058 50.8614802,4.0932102 48.3380282,5.34945522 C45.8386925,6.59254584 44.7117991,9.92060856 44.2864736,13.8252724 C43.7800292,18.5740101 44.157122,23.088161 48.7063513,23.088161 C50.6597794,23.088161 52.2492692,22.9653867 53.3213526,21.4811321 C53.3213526,21.4811321 53.3213526,21.5841749 53.2994286,21.7486048 C53.2665074,22.0922737 53.3808607,22.4337842 53.6140925,22.6883329 C53.8473243,22.9428816 54.177557,23.0865913 54.5227877,23.0837762 L58.8001594,23.0837762 L59.148751,19.8083311 C59.1632426,19.697758 59.1294631,19.5862949 59.0560276,19.5023685 C58.982592,19.4184422 58.8765993,19.3701657 58.7650811,19.3698512 L57.9122376,19.3698512 L57.91443,19.3808132 Z M54.68941,8.68847994 C54.5973293,10.8808796 53.7686022,17.4580787 53.7686022,17.4580787 C53.7327515,17.7675217 53.5882469,18.0542001 53.3608158,18.2670741 C52.3764284,19.1900744 51.1684162,19.3873904 50.1072947,19.3260032 C48.1187882,19.209806 47.5356099,18.5805873 48.0552086,13.8296572 C48.4279166,10.4117061 48.8642041,9.6224422 49.9319027,8.82002392 C50.9491762,8.05487643 52.2119984,8.08995482 54.2311985,8.16230401 L54.2311985,8.16230401 C54.4884842,8.17512458 54.690756,8.38702845 54.6916024,8.64463194 C54.6872176,8.65120914 54.68941,8.67751794 54.68941,8.68847994 L54.68941,8.68847994 Z" id="Shape"></path>
                    <path d="M35.5421605,4.57334573 C35.4259633,4.7925857 35.356245,5.01182567 35.3020197,5.23106564 L35.549907,4.57334573 L35.549907,4.57334573 L35.5421605,4.57334573 Z" id="Shape"></path>
                    <path d="M30.509434,4.57334573 L29.077797,4.57334573 C28.2480298,4.60164975 27.43271,4.79857967 26.6815041,5.15213925 C26.4819957,5.24202764 26.2824874,5.33849322 26.0873638,5.44592081 C24.4891044,6.32288068 23.8445389,8.07680043 23.6757242,8.56132075 C23.2372442,9.77591018 23.307401,12.9614669 25.6730003,14.4128355 C25.7321951,14.4479139 25.7913898,14.4851847 25.852777,14.5180707 C27.0629817,15.1757906 28.3586899,15.4739569 29.2531889,15.9869785 C29.928448,16.3750332 30.3756976,16.8902471 30.3756976,17.789131 C30.3756976,18.3547701 29.9986048,18.7559793 29.4154265,19.0387988 C28.3192267,19.5649748 25.907587,19.385198 25.0963991,19.385198 L23.1670874,19.385198 L22.7483391,23.0903534 L27.9684427,23.0903534 C28.8058425,23.0710468 29.6336025,22.9071266 30.4151608,22.6058331 C32.8092612,21.7683364 34.0041191,19.9245283 34.0041191,16.9494419 C34.0041191,14.6233059 32.0550757,13.0316237 29.6828993,12.1656258 L29.3978873,12.0647754 C28.0824475,11.6262955 26.5938081,11.2207016 27.2690672,9.38127824 C27.7470104,8.08118522 29.8385597,8.2543848 30.9961467,8.28507839 L31.0334175,8.28507839 L31.5288998,8.28507839 L32.7873372,8.28507839 C33.2456076,8.27941514 33.6927767,8.14328714 34.0764682,7.89263885 C34.6997997,7.50339614 35.1151633,6.85459172 35.2077465,6.12556471 L35.2976349,5.22448844 C35.3129817,5.00524847 35.3349057,4.7860085 35.3655993,4.56676854 L30.509434,4.56676854 L30.509434,4.57334573 Z" id="Shape"></path>
                    <path d="M40.7216317,4.57334573 L41.041722,1.56098857 C41.0565075,1.38423212 40.9962649,1.20940792 40.8757308,1.07928113 C40.7551967,0.949154345 40.585488,0.875726679 40.4081185,0.876959872 L37.7991629,0.876959872 C37.5500393,0.880682423 37.3420571,1.06805373 37.3124502,1.31543981 L36.9638586,4.50099655 L36.5253787,8.51089556 C-1.30085564,1.11022302e-16 36.5253787,8.52404996 36.5253787,8.53062716 L35.5607228,17.3221499 L35.1222429,21.2531225 C35.061111,21.7301956 35.2119255,22.2101163 35.5349595,22.5664657 C35.8579934,22.9228152 36.3208557,23.1198618 36.801621,23.1057002 L40.5593941,23.1057002 L40.9079856,19.8346399 C40.9240571,19.7233951 40.8905386,19.6106978 40.8162842,19.5263178 C40.7420298,19.4419378 40.6345087,19.3943628 40.5221233,19.39616 L39.6824342,19.39616 C39.5303851,19.4009146 39.3840071,19.3382316 39.2825225,19.2249072 C39.1810379,19.1115827 39.134822,18.9592024 39.1562583,18.8085969 L39.2439543,18.0346798 L40.2831517,8.76740632 C40.3185373,8.49321125 40.5525928,8.2882952 40.8290593,8.28946319 L42.9951501,8.28946319 C44.2286821,8.27028955 45.2629988,7.35244993 45.4287138,6.12994951 L45.5931438,4.59526973 L40.7216317,4.59526973 L40.7216317,4.57334573 Z" id="Shape"></path>
                    <path d="M67.7889981,4.57334573 C67.5927632,4.57378363 67.4048642,4.65273279 67.267207,4.7925857 L66.4735583,5.59061919 C66.3415497,5.72558044 66.1623929,5.80415799 65.9736912,5.80985915 L66.032886,5.26175923 C66.0502994,5.08356126 65.9912396,4.90634897 65.8704048,4.77422515 C65.74957,4.64210132 65.5783232,4.56749046 65.3992825,4.56896094 L62.7903269,4.56896094 C62.5296711,4.57100507 62.3050177,4.75291065 62.2488041,5.00744087 L60.2756444,23.0947382 L64.0180707,23.0947382 L65.6119453,8.76959872 C65.6186176,8.7134254 65.6341574,8.6586659 65.6579856,8.60736115 C65.7531791,8.39089995 65.9746993,8.25816367 66.2104704,8.2763088 L68.3349057,8.2763088 L68.4116396,8.2763088 C69.610265,8.2189301 70.5947267,7.30934298 70.7465453,6.11898751 L70.9109753,4.58430773 L67.7889981,4.58430773 L67.7889981,4.57334573 Z" id="Shape"></path>
                    <path d="M93.1769864,19.3808132 C93.0245164,19.3852425 92.8777426,19.3227337 92.7752839,19.209734 C92.6728251,19.0967342 92.624942,18.9445596 92.6442333,18.7932501 L94.0100983,5.96990433 C94.0462678,5.60833029 93.9268279,5.24845232 93.6816443,4.98025653 C93.4364606,4.71206073 93.0887122,4.56090169 92.7253521,4.56457614 C92.3619921,4.56825058 86.1152671,4.0932102 83.591815,5.34945522 C81.1034414,6.59035344 79.976548,9.91841616 79.559992,13.82308 C79.0535477,18.5718177 79.4306404,23.0859686 83.9798698,23.0859686 C85.9332979,23.0859686 87.5227877,22.9631943 88.5948711,21.4789397 C88.5948711,21.4789397 88.5948711,21.5819825 88.5729471,21.7464124 C88.5400259,22.0900813 88.6543792,22.4315918 88.887611,22.6861405 C89.1208428,22.9406892 89.4510755,23.0843989 89.7963061,23.0815838 L94.0539463,23.0815838 L94.4025379,19.8061387 C94.4170294,19.6955656 94.38325,19.5841025 94.3098144,19.5001761 C94.2363789,19.4162498 94.1303861,19.3679733 94.0188679,19.3676588 L93.1769864,19.3676588 L93.1769864,19.3808132 Z M89.9453893,8.68847994 C89.8533085,10.8808796 89.0245815,17.4580787 89.0245815,17.4580787 C88.9887308,17.7675217 88.8442262,18.0542001 88.6167951,18.2670741 C87.6324077,19.1900744 86.4243954,19.3873904 85.363274,19.3260032 C83.3747675,19.209806 82.7915892,18.5805873 83.3111879,13.8296572 C83.6838958,10.4117061 84.1201834,9.6224422 85.187882,8.82002392 C86.2051555,8.05487643 87.4679777,8.08995482 89.4871778,8.16230401 L89.4871778,8.16230401 C89.7444634,8.17512458 89.9467353,8.38702845 89.9475817,8.64463194 C89.9431969,8.65120914 89.9453893,8.67751794 89.9453893,8.68847994 L89.9453893,8.68847994 Z" id="Shape"></path>
                    <path d="M75.9776109,4.57334573 L76.2955089,1.56098857 C76.3102591,1.38461427 76.2503062,1.21014644 76.1302574,1.08009357 C76.0102086,0.950040701 75.8410867,0.876344164 75.6640978,0.876959872 L73.0551422,0.876959872 C72.8060185,0.880682423 72.5980364,1.06805373 72.5684294,1.31543981 L72.2198379,4.50099655 L71.781358,8.51089556 C-2.13162821e-13,-2.99760217e-15 71.781358,8.52404996 71.781358,8.53062716 L70.8145097,17.3046107 L70.3760298,21.2355833 C70.3148979,21.7126564 70.4657124,22.1925771 70.7887463,22.5489265 C71.1117803,22.905276 71.5746426,23.1023226 72.0554079,23.088161 L75.8109886,23.088161 L76.1595801,19.8171007 C76.1756516,19.7058559 76.1421331,19.5931586 76.0678787,19.5087786 C75.9936242,19.4243986 75.8861032,19.3768236 75.7737178,19.3786208 L74.9142971,19.3786208 C74.762248,19.3833754 74.6158699,19.3206924 74.5143854,19.207368 C74.4129008,19.0940435 74.3666848,18.9416632 74.3881212,18.7910577 L74.4758172,18.0171406 L75.5150146,8.74986713 C75.5530705,8.47149339 75.795461,8.26697645 76.0762689,8.2763088 L78.2423598,8.2763088 C79.4775652,8.259285 80.5143409,7.34091805 80.6803083,6.11679511 L80.8447382,4.58211533 L75.9776109,4.58211533 L75.9776109,4.57334573 Z" id="Shape"></path>
                    <path d="M106.664629,16.324608 C109.212198,14.5421871 109.501594,10.8874568 109.527903,10.6397157 C109.587098,10.0740765 110.056272,7.31165294 108.122575,5.61692798 C107.567898,5.13021525 106.739171,4.86493489 105.772323,4.72462131 C104.579657,4.55142174 98.1690805,4.56676854 98.1690805,4.56676854 C97.5759136,4.56493855 97.0685179,4.99256088 96.9698379,5.57746479 L96.9698379,5.57746479 C2.42479405,-2.66453526e-15 96.9698379,5.59500399 96.9698379,5.60377358 L96.9698379,5.60377358 C96.9608976,5.65452843 96.9550405,5.70577831 96.9522987,5.75724156 C96.7922535,7.17791656 95.6456285,17.5391974 95.5886261,18.096067 C95.5551684,18.3827681 95.5390615,18.6712287 95.5403933,18.9598724 C95.5403933,20.2139251 95.9306404,21.2158517 96.6826335,21.9437284 C96.8826641,22.1334277 97.1076309,22.2949612 97.3513154,22.4238639 C97.8257681,22.6632713 98.325932,22.8478906 98.8421472,22.9741563 C99.2236248,23.077199 100.429445,23.0793914 101.492758,23.077199 L106.973758,23.077199 L107.315772,19.7885995 C107.327618,19.6813894 107.293257,19.5742064 107.221286,19.4938665 C107.149315,19.4135266 107.046542,19.3676298 106.938679,19.3676588 L101.440141,19.3676588 C100.383404,19.3676588 99.2762424,19.297502 99.2981664,18.9116396 C99.2981664,18.8502525 99.4757507,17.2519931 99.4757507,17.2519931 C100.894233,17.4580787 104.603774,17.7584374 106.664629,16.324608 L106.664629,16.324608 Z M99.8681903,13.4898352 L100.350518,8.88579591 C100.355018,8.7367207 100.380858,8.5890597 100.427252,8.44731597 L100.427252,8.44731597 C100.479087,8.29045382 100.614688,8.17604042 100.778036,8.15134201 L103.323412,8.15134201 C104.814244,8.15134201 106.206418,8.2521924 105.774515,11.0650412 C105.272455,14.3251395 99.9295775,13.647688 99.8659979,13.4898352 L99.8681903,13.4898352 Z" id="Shape"></path>
                    <path d="M104.018403,2.89835238 C104.406458,3.17020994 105.270263,3.76215785 106.241496,3.76215785 C106.74794,3.76215785 106.859753,3.19213394 106.660244,2.83038799 C106.660244,2.83038799 105.430308,1.42505979 104.895363,0.664297103 C104.592013,0.270431395 104.131744,0.0287338912 103.635288,0.0026046433 C103.138832,-0.0235246046 102.655734,0.168521968 102.312716,0.528368323 C101.644034,1.29790061 100.028235,2.78873239 100.028235,2.78873239 C99.7147223,3.22721233 99.8747675,3.76215785 100.405328,3.76215785 C101.475219,3.76215785 102.455222,3.12855434 102.893702,2.85450438 C103.241329,2.63413258 103.688988,2.65158518 104.018403,2.89835238 L104.018403,2.89835238 Z" id="Shape"></path>
                    <path d="M16.1404465,6.99375498 L16.1404465,4.70927452 C16.1416094,4.69687813 16.1416094,4.6844001 16.1404465,4.67200372 L16.1404465,4.67200372 L16.1404465,4.67200372 L16.1404465,4.65665692 L16.1272921,4.64350252 L16.0878289,4.60403933 L16.0702897,4.60403933 L16.0702897,4.60403933 L16.0702897,4.60403933 L16.0505581,4.60403933 L3.91124103,4.60403933 C3.87681022,4.60371216 3.84366987,4.61712611 3.81916024,4.64131012 L0.0372707946,8.42319957 C0.0271087965,8.43411299 0.0189456258,8.4467288 0.0131543981,8.46047037 L0.0131543981,8.47143237 C0.0115338536,8.48306902 0.0115338536,8.49487411 0.0131543981,8.50651076 C0.0147749426,8.51814741 0.0131543981,8.50651076 0.0131543981,8.50651076 L0.0131543981,13.0688945 C0.0108467687,13.099349 0.0193897532,13.1296378 0.0372707946,13.1543981 L3.72707946,16.8661307 L0.0372707946,20.5734786 C0.027318019,20.5837332 0.0191650019,20.5955922 0.0131543981,20.608557 L0.0131543981,20.619519 C0.0115338536,20.6311556 0.0115338536,20.6429607 0.0131543981,20.6545974 C0.0147749426,20.666234 0.0131543981,20.6545974 0.0131543981,20.6545974 L0.0131543981,22.9325007 C0.0131543981,23.0039396 0.0710670736,23.0618522 0.142505979,23.0618522 L12.2445522,23.0618522 C12.278224,23.0616021 12.3104711,23.0482313 12.3344406,23.0245815 L12.3344406,23.0245815 L16.1031757,19.2361148 C16.1268255,19.2121453 16.1401963,19.1798982 16.1404465,19.1462264 L16.1404465,14.5882275 C0.258703162,0 16.1404465,14.5882275 16.1404465,14.5882275 C16.142067,14.5765908 16.142067,14.5647857 16.1404465,14.5531491 L16.1404465,14.5421871 C16.1346552,14.5284455 16.1264921,14.5158297 16.1163301,14.5049163 L12.4111746,10.7909912 L16.1031757,7.08583577 C16.1273597,7.06132615 16.1407736,7.0281858 16.1404465,6.99375498 L16.1404465,6.99375498 Z M15.8839357,14.7175791 L15.8839357,16.7389716 L4.04497741,16.7389716 L4.04497741,14.7175791 L15.8839357,14.7175791 L15.8839357,14.7175791 Z M0.256510763,8.64243954 L12.095469,8.64243954 L12.095469,10.663832 L0.256510763,10.663832 L0.256510763,8.64243954 L0.256510763,8.64243954 Z M3.96385862,4.8452033 L15.7041589,4.8452033 L12.1765878,8.38373638 L0.438479936,8.38373638 L3.96385862,4.8452033 Z M0.256510763,11.102312 L3.78188945,14.6408451 L3.78188945,16.55481 L0.256510763,13.0162769 L0.256510763,11.102312 L0.256510763,11.102312 Z M3.96385862,16.9954823 L15.7041589,16.9954823 L12.1765878,20.5362078 L0.438479936,20.5362078 L3.96385862,16.9954823 Z M0.256510763,20.7927186 L12.095469,20.7927186 L12.095469,22.8141111 L0.256510763,22.8141111 L0.256510763,20.7927186 L0.256510763,20.7927186 Z M12.358557,22.6321419 L12.358557,20.718177 L15.8839357,17.1774515 L15.8839357,19.0914164 L12.358557,22.6321419 Z M3.96385862,14.4698379 L0.438479936,10.9203428 L12.1765878,10.9203428 L15.7041589,14.4698379 L3.96385862,14.4698379 L3.96385862,14.4698379 Z M12.358557,10.4796705 L12.358557,8.56570555 L15.8839357,5.02717247 L15.8839357,6.94113739 L12.358557,10.4796705 Z" id="Shape"></path>
                </g>
            </g>
        </g>
    </g>
</svg>